HIERARCHY
ROOT hip
{
  OFFSET 0 0 0
  CHANNELS 6 Xposition Yposition Zposition Zrotation Yrotation Xrotation
  JOINT abdomen
  {
    OFFSET 0 20.6881 -0.73152
    CHANNELS 3 Zrotation Xrotation Yrotation
    JOINT chest
    {
      OFFSET 0 11.7043 -0.48768
      CHANNELS 3 Zrotation Xrotation Yrotation
      JOINT neck
      {
        OFFSET 0 22.1894 -2.19456
        CHANNELS 3 Zrotation Xrotation Yrotation
        JOINT head
        {
          OFFSET -0.24384 7.07133 1.2192
          CHANNELS 3 Zrotation Xrotation Yrotation
          JOINT leftEye
          {
            OFFSET 4.14528 8.04674 8.04672
            CHANNELS 3 Zrotation Xrotation Yrotation
            End Site
            {
              OFFSET 1 0 0
            }
          }
          JOINT rightEye
          {
            OFFSET -3.6576 8.04674 8.04672
            CHANNELS 3 Zrotation Xrotation Yrotation
            End Site
            {
              OFFSET 1 0 0
            }
          }
        }
      }
      JOINT rCollar
      {
        OFFSET -2.68224 19.2634 -4.8768
        CHANNELS 3 Zrotation Xrotation Yrotation
        JOINT rShldr
        {
          OFFSET -8.77824 -1.95073 1.46304
          CHANNELS 3 Zrotation Xrotation Yrotation
          JOINT rForeArm
          {
            OFFSET -28.1742 -1.7115 0.48768
            CHANNELS 3 Zrotation Xrotation Yrotation
            JOINT rHand
            {
              OFFSET -22.5879 0.773209 7.07136
              CHANNELS 3 Zrotation Xrotation Yrotation
              JOINT rThumb1
              {
                OFFSET -1.2192 -0.487915 3.41376
                CHANNELS 3 Zrotation Xrotation Yrotation
                JOINT rThumb2
                {
                  OFFSET -3.37035 -0.52449 3.41376
                  CHANNELS 3 Zrotation Xrotation Yrotation
                  End Site
                  {
                    OFFSET -1.78271 -1.18214 1.43049
                  }
                }
              }
              JOINT rIndex1
              {
                OFFSET -7.75947 0.938293 5.60832
                CHANNELS 3 Zrotation Xrotation Yrotation
                JOINT rIndex2
                {
                  OFFSET -2.54057 -0.884171 1.56538
                  CHANNELS 3 Zrotation Xrotation Yrotation
                  End Site
                  {
                    OFFSET -1.62519 -0.234802 1.16502
                  }
                }
              }
              JOINT rMid1
              {
                OFFSET -8.24714 1.18213 3.41376
                CHANNELS 3 Zrotation Xrotation Yrotation
                JOINT rMid2
                {
                  OFFSET -3.10165 -0.590103 1.0647
                  CHANNELS 3 Zrotation Xrotation Yrotation
                  End Site
                  {
                    OFFSET -2.48547 -0.328903 0.83742
                  }
                }
              }
              JOINT rRing1
              {
                OFFSET -8.82822 0.546677 1.51678
                CHANNELS 3 Zrotation Xrotation Yrotation
                JOINT rRing2
                {
                  OFFSET -2.60934 -0.819778 -0.0198488
                  CHANNELS 3 Zrotation Xrotation Yrotation
                  End Site
                  {
                    OFFSET -2.33842 -0.294052 0.168128
                  }
                }
              }
              JOINT rPinky1
              {
                OFFSET -8.27202 -0.0477905 -0.4584
                CHANNELS 3 Zrotation Xrotation Yrotation
                JOINT rPinky2
                {
                  OFFSET -1.82734 -0.647385 -0.700984
                  CHANNELS 3 Zrotation Xrotation Yrotation
                  End Site
                  {
                    OFFSET -1.69225 -0.51767 -0.607171
                  }
                }
              }
            }
          }
        }
      }
      JOINT lCollar
      {
        OFFSET 2.68224 19.2634 -4.8768
        CHANNELS 3 Zrotation Xrotation Yrotation
        JOINT lShldr
        {
          OFFSET 8.77824 -1.95073 1.46304
          CHANNELS 3 Zrotation Xrotation Yrotation
          JOINT lForeArm
          {
            OFFSET 28.1742 -1.7115 0.48768
            CHANNELS 3 Zrotation Xrotation Yrotation
            JOINT lHand
            {
              OFFSET 22.5879 0.773209 7.07136
              CHANNELS 3 Zrotation Xrotation Yrotation
              JOINT lThumb1
              {
                OFFSET 1.2192 -0.487915 3.41376
                CHANNELS 3 Zrotation Xrotation Yrotation
                JOINT lThumb2
                {
                  OFFSET 3.37035 -0.52449 3.41376
                  CHANNELS 3 Zrotation Xrotation Yrotation
                  End Site
                  {
                    OFFSET 1.78271 -1.18214 1.43049
                  }
                }
              }
              JOINT lIndex1
              {
                OFFSET 7.75947 0.938293 5.60832
                CHANNELS 3 Zrotation Xrotation Yrotation
                JOINT lIndex2
                {
                  OFFSET 2.54057 -0.884171 1.56538
                  CHANNELS 3 Zrotation Xrotation Yrotation
                  End Site
                  {
                    OFFSET 1.62519 -0.234802 1.16502
                  }
                }
              }
              JOINT lMid1
              {
                OFFSET 8.24714 1.18213 3.41376
                CHANNELS 3 Zrotation Xrotation Yrotation
                JOINT lMid2
                {
                  OFFSET 3.10165 -0.590103 1.0647
                  CHANNELS 3 Zrotation Xrotation Yrotation
                  End Site
                  {
                    OFFSET 2.48547 -0.328903 0.83742
                  }
                }
              }
              JOINT lRing1
              {
                OFFSET 8.82822 0.546677 1.51678
                CHANNELS 3 Zrotation Xrotation Yrotation
                JOINT lRing2
                {
                  OFFSET 2.60934 -0.819778 -0.0198488
                  CHANNELS 3 Zrotation Xrotation Yrotation
                  End Site
                  {
                    OFFSET 2.33842 -0.294052 0.168128
                  }
                }
              }
              JOINT lPinky1
              {
                OFFSET 8.27202 -0.0477905 -0.4584
                CHANNELS 3 Zrotation Xrotation Yrotation
                JOINT lPinky2
                {
                  OFFSET 1.82734 -0.647385 -0.700984
                  CHANNELS 3 Zrotation Xrotation Yrotation
                  End Site
                  {
                    OFFSET 1.69225 -0.51767 -0.607171
                  }
                }
              }
            }
          }
        }
      }
    }
  }
  JOINT rButtock
  {
    OFFSET -8.77824 4.35084 1.2192
    CHANNELS 3 Zrotation Xrotation Yrotation
    JOINT rThigh
    {
      OFFSET 0 -1.70687 -2.19456
      CHANNELS 3 Zrotation Xrotation Yrotation
      JOINT rShin
      {
        OFFSET 0 -36.8199 0.73152
        CHANNELS 3 Zrotation Xrotation Yrotation
        JOINT rFoot
        {
          OFFSET 0.73152 -45.1104 -5.12064
          CHANNELS 3 Zrotation Xrotation Yrotation
          End Site
          {
            OFFSET -1.1221 -3.69964 12.103
          }
        }
      }
    }
  }
  JOINT lButtock
  {
    OFFSET 8.77824 4.35084 1.2192
    CHANNELS 3 Zrotation Xrotation Yrotation
    JOINT lThigh
    {
      OFFSET 0 -1.70687 -2.19456
      CHANNELS 3 Zrotation Xrotation Yrotation
      JOINT lShin
      {
        OFFSET 0 -36.8199 0.73152
        CHANNELS 3 Zrotation Xrotation Yrotation
        JOINT lFoot
        {
          OFFSET -0.73152 -45.1104 -5.12064
          CHANNELS 3 Zrotation Xrotation Yrotation
          End Site
          {
            OFFSET 1.1221 -3.69964 12.103
          }
        }
      }
    }
  }
}
MOTION
Frames:	4
Frame Time:	0.03333
-20.805300176143646 65.51969909667969 0.06799998786300421 -161.19800448417664 -65.36129772663116 162.06000208854675 0.23250601021572948 12.025500386953354 13.783500641584396 -0.13498299638740718 -13.199200183153152 3.845040164887905 -0.22748600458726287 13.359400480985641 9.881960079073906 5.566510073840618 -20.856700390577316 20.37589967250824 0.0 0.0 0.0 0.0 0.0 0.0 0.0 5.115907697472721e-12 0.0 47.270302176475525 81.48319780826569 15.901500284671783 -26.36080116033554 -45.53979992866516 94.57740426063538 -48.932000398635864 -80.44039785861969 -56.56460165977478 -3.2997604648699053e-10 -8.952838470577262e-10 -4.706635081674904e-10 -5.32054400537163e-10 -1.5347723092418164e-09 -8.185452315956354e-10 -3.2997604648699053e-10 -8.952838470577262e-10 -4.706635081674904e-10 7.7309102565050125 5.474880114197731 0.41731400415301323 -3.2997604648699053e-10 -8.952838470577262e-10 -4.706635081674904e-10 2.905540131032467 0.9651830233633518 0.102901995414868 -3.2997604648699053e-10 -8.952838470577262e-10 -4.706635081674904e-10 10.27859978377819 0.7318009994924068 0.025912300043273717 -3.2997604648699053e-10 -8.952838470577262e-10 -4.706635081674904e-10 2.221670038998127 -0.733487019315362 -0.2089200052432716 0.0 5.115907697472721e-12 0.0 -66.78240180015564 8.285359740257263 -35.521499812603 28.433301150798798 -35.757601261138916 -76.60390019416809 0.4509479831904173 18.73840034008026 -2.732640076428652 1.304556462855544e-09 -1.176658770418726e-09 -2.220303940703161e-09 2.2305357560981065e-09 -2.036131263594143e-09 -3.867626219289377e-09 1.304556462855544e-09 -1.176658770418726e-09 -2.220303940703161e-09 -7.7309102565050125 5.474880114197731 -0.41731400415301323 1.304556462855544e-09 -1.176658770418726e-09 -2.220303940703161e-09 -2.905540131032467 0.9651830233633518 -0.102901995414868 1.304556462855544e-09 -1.176658770418726e-09 -2.220303940703161e-09 -10.27859978377819 0.7318009994924068 -0.025912300043273717 1.304556462855544e-09 -1.176658770418726e-09 -2.220303940703161e-09 -2.221670038998127 -0.733487019315362 0.2089200052432716 0.0 0.0 0.0 -13.384200185537338 -36.82850003242493 -24.477399587631226 -5.145480036735535 80.86050152778625 6.304239928722382 -17.1233993768692 -21.992700397968292 -28.112398982048035 0.0 0.0 0.0 70.91840028762817 -42.174400091171265 67.61130094528198 1.9166700169444084 67.76429951190948 -1.7854000255465508 0.3834009915590286 5.157670006155968 -1.4827700704336166
-20.921600177884102 65.41349792480469 -0.0020000124350190163 -161.13700032234192 -65.48810184001923 161.99999570846558 0.20892199594527483 11.931699514389038 13.765199929475784 -0.12290299753658473 -13.185000568628311 3.8419200852513313 -0.18763600615784526 13.31700012087822 9.868610054254532 5.482710152864456 -20.680599957704544 20.31609982252121 0.0 0.0 0.0 0.0 0.0 0.0 0.0 5.115907697472721e-12 0.0 47.55529761314392 81.52059853076935 15.657699555158615 -26.357700526714325 -45.54630160331726 94.59110498428345 -48.692999482154846 -80.41410148143768 -56.32219970226288 4.5787373892380856e-10 -1.176658770418726e-09 -1.2175860319985077e-09 8.671463547216263e-10 -1.8980017557623796e-09 -2.0258994481991976e-09 4.5787373892380856e-10 -1.176658770418726e-09 -1.2175860319985077e-09 7.7309102565050125 5.474880114197731 0.41731400415301323 4.5787373892380856e-10 -1.176658770418726e-09 -1.2175860319985077e-09 2.905540131032467 0.9651830233633518 0.102901995414868 4.5787373892380856e-10 -1.176658770418726e-09 -1.2175860319985077e-09 10.27859978377819 0.7318009994924068 0.025912300043273717 4.5787373892380856e-10 -1.176658770418726e-09 -1.2175860319985077e-09 2.221670038998127 -0.733487019315362 -0.2089200052432716 0.0 5.115907697472721e-12 0.0 -66.82549953460693 8.339410275220871 -35.59490114450455 28.433301150798798 -35.71149945259094 -76.52719974517822 0.4403849830850959 18.527200520038605 -2.699539940804243 2.289368694619043e-09 -1.6319745554937981e-09 -2.885371941374615e-09 3.9187852962641045e-09 -2.8188651413074695e-09 -5.013589543523267e-09 2.289368694619043e-09 -1.6319745554937981e-09 -2.885371941374615e-09 -7.7309102565050125 5.474880114197731 -0.41731400415301323 2.289368694619043e-09 -1.6319745554937981e-09 -2.885371941374615e-09 -2.905540131032467 0.9651830233633518 -0.102901995414868 2.289368694619043e-09 -1.6319745554937981e-09 -2.885371941374615e-09 -10.27859978377819 0.7318009994924068 -0.025912300043273717 2.289368694619043e-09 -1.6319745554937981e-09 -2.885371941374615e-09 -2.221670038998127 -0.733487019315362 0.2089200052432716 0.0 0.0 0.0 -13.50800022482872 -36.759899854660034 -24.610201120376587 -5.274999886751175 81.06430113315582 6.449340060353279 -17.29579970240593 -22.202399522066116 -28.226999044418335 0.0 0.0 0.0 71.13730072975159 -42.16510087251663 67.87599742412567 1.95117998868227 68.02960216999054 -1.8194600567221642 0.37077000830322504 5.086580067873001 -1.6983900032937527
-21.028800174593925 65.30500030517578 -0.08000001404434443 -161.08099579811096 -65.5919998884201 161.94999933242798 0.27956899255514145 11.846000254154205 13.771399855613708 -0.12575399712659419 -13.193900138139725 3.842419981956482 -0.18017399590462446 13.306599855422974 9.862890243530273 5.466789901256561 -20.609399378299713 20.29509946703911 0.0 0.0 0.0 0.0 0.0 0.0 0.0 0.0 0.0 48.128700256347656 81.49829864501953 15.11439934372902 -26.356901228427887 -45.54809868335724 94.59479570388794 -47.83770203590393 -80.31710207462311 -55.4546982049942 1.7880097402667161e-09 -1.248281478183344e-09 -2.1896084945183247e-09 3.197442310920451e-09 -1.8570744941825978e-09 -3.601599019020796e-09 1.7880097402667161e-09 -1.248281478183344e-09 -2.1896084945183247e-09 7.7309102565050125 5.474880114197731 0.41731400415301323 1.7880097402667161e-09 -1.248281478183344e-09 -2.1896084945183247e-09 2.905540131032467 0.9651830233633518 0.102901995414868 1.7880097402667161e-09 -1.248281478183344e-09 -2.1896084945183247e-09 10.27859978377819 0.7318009994924068 0.025912300043273717 1.7880097402667161e-09 -1.248281478183344e-09 -2.1896084945183247e-09 2.221670038998127 -0.733487019315362 -0.2089200052432716 0.0 0.0 0.0 -66.85180127620697 8.407189697027206 -35.59969961643219 28.432898819446564 -35.691699385643005 -76.49699807167053 0.4384340113028884 18.486999571323395 -2.693269941955805 2.1256596482999157e-09 -1.1357315088389441e-09 -1.9031176634598523e-09 3.6476421882980503e-09 -1.9593926481320523e-09 -3.325340003357269e-09 2.1256596482999157e-09 -1.1357315088389441e-09 -1.9031176634598523e-09 -7.7309102565050125 5.474880114197731 -0.41731400415301323 2.1256596482999157e-09 -1.1357315088389441e-09 -1.9031176634598523e-09 -2.905540131032467 0.9651830233633518 -0.102901995414868 2.1256596482999157e-09 -1.1357315088389441e-09 -1.9031176634598523e-09 -10.27859978377819 0.7318009994924068 -0.025912300043273717 2.1256596482999157e-09 -1.1357315088389441e-09 -1.9031176634598523e-09 -2.221670038998127 -0.733487019315362 0.2089200052432716 0.0 0.0 0.0 -13.581000566482544 -36.69699937105179 -24.759699404239655 -5.397560074925423 81.25019967556 6.586989685893059 -17.46279940009117 -22.30459973216057 -28.401299715042114 0.0 0.0 0.0 71.43450021743774 -42.1998006105423 68.09439897537231 1.9889399595558643 68.31519842147827 -1.8575199320912361 0.36007700487971306 5.029180124402046 -1.8523900397121906
-21.138000175356865 65.18409729003906 -0.1520000109449029 -160.9589982032776 -65.6691026687622 161.84999585151672 0.34922300605103374 11.77109956741333 13.790699690580368 -0.12190499575808644 -13.21420043706894 3.846849985420704 -0.1870839949697256 13.307600319385529 9.859479814767838 5.477050021290779 -20.589300245046616 20.289099365472794 0.0 0.0 0.0 0.0 0.0 0.0 0.0 0.0 0.0 48.71840000152588 81.4603990316391 14.535900503396988 -26.356399655342102 -45.54910182952881 94.59719896316528 -47.182400822639465 -80.239999294281 -54.78980004787445 2.2663471099804156e-09 -1.3147882782504894e-09 -2.5988811103161424e-09 4.036451173305977e-09 -1.9133494788547978e-09 -4.26666701969225e-09 2.2663471099804156e-09 -1.3147882782504894e-09 -2.5988811103161424e-09 7.7309102565050125 5.474880114197731 0.41731400415301323 2.2663471099804156e-09 -1.3147882782504894e-09 -2.5988811103161424e-09 2.905540131032467 0.9651830233633518 0.102901995414868 2.2663471099804156e-09 -1.3147882782504894e-09 -2.5988811103161424e-09 10.27859978377819 0.7318009994924068 0.025912300043273717 2.2663471099804156e-09 -1.3147882782504894e-09 -2.5988811103161424e-09 2.221670038998127 -0.733487019315362 -0.2089200052432716 0.0 0.0 0.0 -66.86779797077179 8.464499786496162 -35.5788990855217 28.43260109424591 -35.68879991769791 -76.49440169334412 0.44223700650036335 18.56440007686615 -2.705370057374239 1.4759393707208801e-09 -4.297362465877086e-10 -6.855316314613447e-10 2.5349322640977334e-09 -7.418066161335446e-10 -1.2175860319985077e-09 1.4759393707208801e-09 -4.297362465877086e-10 -6.855316314613447e-10 -7.7309102565050125 5.474880114197731 -0.41731400415301323 1.4759393707208801e-09 -4.297362465877086e-10 -6.855316314613447e-10 -2.905540131032467 0.9651830233633518 -0.102901995414868 1.4759393707208801e-09 -4.297362465877086e-10 -6.855316314613447e-10 -10.27859978377819 0.7318009994924068 -0.025912300043273717 1.4759393707208801e-09 -4.297362465877086e-10 -6.855316314613447e-10 -2.221670038998127 -0.733487019315362 0.2089200052432716 0.0 0.0 0.0 -13.644999414682388 -36.654000878334045 -24.88949954509735 -5.536399930715561 81.45039975643158 6.740920320153236 -17.628999799489975 -22.399199903011322 -28.577601313591003 0.0 0.0 0.0 71.73850178718567 -42.23020076751709 68.29500138759613 2.0290599390864372 68.61069738864899 -1.8980700708925724 0.35050099482759833 4.981239996850491 -1.979529932141304
